<svg xmlns="http://www.w3.org/2000/svg" version="1.1" xmlns:xlink="http://www.w3.org/1999/xlink" xmlns:svgjs="http://svgjs.dev/svgjs" width="460" height="460" viewBox="0 0 128 128"><g transform="matrix(0.8046875,0,0,0.8046875,12.41184074821259,12.814873242367177)"><svg viewBox="0 0 98 98" data-background-color="#cdcaca" preserveAspectRatio="xMidYMid meet" height="127" width="128" xmlns="http://www.w3.org/2000/svg" xmlns:xlink="http://www.w3.org/1999/xlink"><g id="tight-bounds" transform="matrix(1,0,0,1,0.08387967645792571,0.08387967645792571)"><svg viewBox="0 0 97.83224064708415 97.83224064708415" height="97.83224064708415" width="97.83224064708415"><g><svg></svg></g><g><svg viewBox="0 0 97.83224064708415 97.83224064708415" height="97.83224064708415" width="97.83224064708415"><g><path d="M0 48.916c0-27.016 21.9-48.916 48.916-48.916 27.016 0 48.916 21.9 48.916 48.916 0 27.016-21.9 48.916-48.916 48.916-27.016 0-48.916-21.9-48.916-48.916zM48.916 93.244c24.481 0 44.328-19.846 44.328-44.328 0-24.481-19.846-44.328-44.328-44.327-24.481 0-44.328 19.846-44.327 44.327 0 24.481 19.846 44.328 44.327 44.328z" data-fill-palette-color="tertiary" fill="#63a88a" stroke="transparent"></path><ellipse rx="46.95947551060039" ry="46.95947551060039" cx="48.916120323542074" cy="48.916120323542074" fill="#63a88a" stroke="transparent" stroke-width="0" fill-opacity="1" data-fill-palette-color="tertiary"></ellipse></g><g transform="matrix(1,0,0,1,28.31061471096628,23.47539391502934)"><svg viewBox="0 0 41.21101122515159 50.88145281702547" height="50.88145281702547" width="41.21101122515159"><g><svg viewBox="0 0 41.21101122515159 50.88145281702547" height="50.88145281702547" width="41.21101122515159"><g><svg viewBox="0 0 41.21101122515159 50.88145281702547" height="50.88145281702547" width="41.21101122515159"><g id="textblocktransform"><svg viewBox="0 0 41.21101122515159 50.88145281702547" height="50.88145281702547" width="41.21101122515159" id="textblock"><g><svg viewBox="0 0 41.21101122515159 50.88145281702547" height="50.88145281702547" width="41.21101122515159"><g><svg viewBox="0 0 41.21101122515159 50.88145281702547" height="50.88145281702547" width="41.21101122515159"><g><svg xmlns="http://www.w3.org/2000/svg" xmlns:xlink="http://www.w3.org/1999/xlink" version="1.1" x="0" y="0" viewBox="13.73 5.218999999999999 72.53999999999999 89.56200000000001" enable-background="new 0 0 100 100" xml:space="preserve" height="50.88145281702547" width="41.21101122515159" class="icon-icon-0" data-fill-palette-color="quaternary" id="icon-0"><polygon points="49.994,94.781 45.533,85.598 54.452,85.597 " fill="#cdcaca" data-fill-palette-color="quaternary"></polygon><polygon points="85.893,35.6 84.479,33.159 81.491,31.3 73.703,35.831 78.479,44.079 86.27,39.548 " fill="#cdcaca" data-fill-palette-color="quaternary"></polygon><polygon points="36.934,28.759 41.355,36.465 58.763,36.465 63.151,28.759 " fill="#cdcaca" data-fill-palette-color="quaternary"></polygon><polygon points="29.423,53.408 38.125,38.322 33.691,30.591 20.524,53.408 " fill="#cdcaca" data-fill-palette-color="quaternary"></polygon><polygon points="38.118,72.204 29.423,57.132 20.524,57.132 33.622,79.826 " fill="#cdcaca" data-fill-palette-color="quaternary"></polygon><polygon points="32.649,55.271 41.352,70.351 58.768,70.351 67.468,55.271 58.768,40.189 41.352,40.189 " fill="#cdcaca" data-fill-palette-color="quaternary"></polygon><polygon points="61.992,38.32 70.695,53.408 79.592,53.408 66.41,30.561 " fill="#cdcaca" data-fill-palette-color="quaternary"></polygon><polygon points="58.768,74.074 41.336,74.074 36.788,81.78 63.196,81.78 " fill="#cdcaca" data-fill-palette-color="quaternary"></polygon><polygon points="70.695,57.132 61.995,72.215 66.436,79.938 79.592,57.132 " fill="#cdcaca" data-fill-palette-color="quaternary"></polygon><polygon points="14.107,35.841 15.521,33.4 18.508,31.541 26.297,36.072 21.521,44.32 13.73,39.789 " fill="#cdcaca" data-fill-palette-color="quaternary"></polygon><polygon points="85.893,74.908 84.479,77.348 81.491,79.207 73.703,74.676 78.479,66.428 86.27,70.959 " fill="#cdcaca" data-fill-palette-color="quaternary"></polygon><polygon points="14.239,74.988 15.653,77.427 18.64,79.286 26.428,74.755 21.653,66.508 13.862,71.039 " fill="#cdcaca" data-fill-palette-color="quaternary"></polygon><path d="M56.675 10.903L52.96 6.14l-2.882-0.921-3.136 0.916-3.458 4.747 0.007 14.243 13.186 0.024L56.675 10.903zM47.681 13.282h-1.544l-0.772-1.337 0.772-1.338h1.544l0.771 1.338L47.681 13.282zM54.024 13.282H52.48l-0.772-1.337 0.772-1.338h1.544l0.771 1.338L54.024 13.282z" fill="#cdcaca" data-fill-palette-color="quaternary"></path></svg></g></svg></g></svg></g></svg></g></svg></g><g></g></svg></g></svg></g></svg></g><defs></defs></svg><rect width="97.83224064708415" height="97.83224064708415" fill="none" stroke="none" visibility="hidden"></rect></g></svg></g></svg>